<svg width="80" height="80" viewBox="0 0 80 80" fill="none" xmlns="http://www.w3.org/2000/svg">
  <ellipse cx="40" cy="68" rx="16" ry="3" fill="#2D6A6A" opacity="0.15"/>
  <path d="M40 68 C40 68, 40 42, 40 32" stroke="#2D6A6A" stroke-width="3" stroke-linecap="round" fill="none"/>
  <path d="M40 38 C36 34, 22 28, 20 20 C18 12, 24 8, 30 10 C36 12, 38 24, 40 32" fill="#2D6A6A"/>
  <path d="M40 32 C44 28, 56 22, 58 14 C60 6, 54 2, 48 4 C42 6, 40 20, 40 28" fill="#4A8F8F"/>
  <circle cx="40" cy="28" r="3" fill="#D4943A"/>
  <path d="M38 36 C34 30, 28 22, 24 16" stroke="#FDF8F0" stroke-width="0.8" stroke-linecap="round" fill="none" opacity="0.4"/>
  <path d="M40 30 C44 24, 50 16, 54 10" stroke="#FDF8F0" stroke-width="0.8" stroke-linecap="round" fill="none" opacity="0.3"/>
</svg>